<?xml version="1.0" encoding="utf-8"?>
<!-- Generator: Adobe Illustrator 24.3.0, SVG Export Plug-In . SVG Version: 6.00 Build 0)  -->
<svg version="1.1" id="Layer_1" xmlns="http://www.w3.org/2000/svg" xmlns:xlink="http://www.w3.org/1999/xlink" x="0px" y="0px"
	 viewBox="0 0 46 37" style="enable-background:new 0 0 46 37;" xml:space="preserve">
<style type="text/css">
	.st0{fill:#38677D;}
</style>
<path class="st0" d="M-90.3,17.2c2.1-0.9,4.5-0.6,6.4,0.7l3.6,2.7c0.1,0.1,0.4,0,0.4-0.2l1-8.2c0-0.1,0-0.2-0.1-0.2l-4.4-3.2
	c-1.8-1.4-4.3-1.6-6.4-0.7l-2.3,1c-0.2,0.1-0.4-0.1-0.3-0.4c0.6-1,1-1.7,1.2-1.9c0-0.1,0-0.1,0-0.2c-1.2-5.7,0.7-9,1.1-9.8
	c0.1-0.1,0.2-0.1,0.3-0.1c2.4,0.4,6.4,4.6,7.1,5.2C-82.5,2-82.5,2-82.4,2c0.7-0.1,4.2-0.7,6.9-0.7s6.2,0.6,6.9,0.7
	c0.1,0,0.2,0,0.2-0.1c0.7-0.7,4.7-4.8,7.1-5.2c0.1,0,0.2,0,0.3,0.1c0.4,0.7,2.3,4.1,1.1,9.8c0,0.1,0,0.1,0,0.2
	c0.1,0.2,0.6,0.9,1.2,1.9c0.1,0.2-0.1,0.5-0.3,0.4l-2.3-1c-2.1-0.9-4.5-0.6-6.4,0.7L-72,12c-0.1,0.1-0.1,0.1-0.1,0.2l1,8.2
	c0,0.2,0.2,0.3,0.4,0.2l3.6-2.7c1.8-1.4,4.3-1.7,6.4-0.7l8.1,3.5c0.2,0.1,0.2,0.3,0,0.4c-1.4,0.9-5.6,3.6-7.6,5.5
	c-2.4,2.2-8.8,6.6-15.3,6.6s-12.9-4.4-15.3-6.6c-2-1.9-6.3-4.6-7.6-5.5c-0.2-0.1-0.1-0.4,0-0.4L-90.3,17.2z"/>
<g>
	<path id="MOUTH_2_" d="M31,24.9c0.1-0.1,0.2-0.1,0.4-0.2c0,0,0.1,0,0.1-0.1c0.2-0.1,0.5-0.1,0.6,0.1c0,0,0,0.1,0,0.1
		c-0.1,0.4-0.4,0.8-0.8,1c-0.4,0.2-0.8,0.3-1.3,0.3c-0.6,0.1-1.1,0.1-1.7,0c-1.1-0.1-2.1-0.5-3.2-0.7c-1.2-0.2-2.4-0.2-3.5-0.5
		c-0.2-0.1-0.4-0.2-0.3-0.3c0.1,0,0.2-0.1,0.3-0.1c0.3-0.2,0.6-0.4,0.9-0.4c0.4-0.1,0.8,0,1.2,0.1c1,0.2,1.8,0.3,2.7,0.6
		c1.6,0.4,3.4,0.4,5-0.1c0.1,0,0.2-0.1,0.3-0.1l0,0L31,24.9z"/>
	<path d="M27.1,4C27.1,4,27.1,4.1,27.1,4C27.1,4.1,27,4.1,27.1,4C27,4.1,27.1,4,27.1,4z"/>
	<path d="M27.1,4.1c0.1,0,0.1,0,0.2,0C27.2,4.1,27.2,4.1,27.1,4.1C27.1,4.1,27.1,4.1,27.1,4.1z"/>
	<path d="M27.6,4.1c0.1,0,0.2,0,0.3,0h-0.5c0.2,0,0.4-0.1,0.5-0.2C27.8,4,27.7,4.1,27.6,4.1z"/>
	<path d="M28,3.9c0,0-0.1,0.1-0.1,0.1c0,0,0,0,0,0C27.9,3.9,27.9,3.9,28,3.9z"/>
	<path d="M27.9,3.8C27.9,3.9,27.9,3.9,27.9,3.8C27.7,4,27.5,4,27.3,4.1C27.5,4,27.7,3.9,27.9,3.8z"/>
	<path d="M28.3,4.1C28.3,4.1,28.3,4.1,28.3,4.1c-0.2,0-0.4,0-0.5,0C28,4.1,28.2,4.1,28.3,4.1z"/>
	<path d="M28.3,4.3C28.2,4.3,28.2,4.3,28.3,4.3c0,0,0.1-0.1,0.1-0.2c0,0,0.1,0,0.1,0C28.4,4.2,28.3,4.2,28.3,4.3z"/>
	<path d="M28.9,4.6L28.9,4.6c0,0,0.1,0,0.1,0C29,4.6,28.9,4.6,28.9,4.6z"/>
	<path d="M19.6,25.2L19.6,25.2z"/>
	<g>
		<g>
			<path d="M32,24.9c-3.3,1.7-7.2-0.2-10.6-0.2c-0.1,0-0.1,0.1,0,0.1C24.9,24.8,28.7,26.7,32,24.9C32.1,25,32.1,24.9,32,24.9
				L32,24.9z"/>
		</g>
	</g>
	<g>
		<g>
			<path d="M18.6,22.7c-0.1-0.1-0.2-0.2-0.3-0.2c0,0,0-0.1,0-0.1c0-0.2,0.3-0.2,0.3,0C18.6,22.5,18.6,22.6,18.6,22.7z"/>
		</g>
	</g>
	<g>
		<g>
			<path d="M30,12.6c-0.3-0.2-0.6-0.4-0.9-0.6c0,0-0.1-0.1-0.1-0.1c-0.2-0.1-0.5-0.3-0.7-0.5c-0.3-0.4,0.1-1.2,0.2-1.6
				c0.2-1,0.4-2,0.4-3c0-0.4,0.1-0.9,0-1.3c0-0.2-0.1-0.7-0.3-0.9c-0.1-0.1-0.4-0.1-0.6-0.2c0,0,0,0,0,0c0,0,0,0,0,0c0,0,0,0,0,0
				c-0.1,0-0.1-0.1-0.1-0.1c-0.1,0-0.3,0-0.4,0c0,0-0.1,0-0.1,0c0,0,0,0,0,0h0c-0.1,0-0.1-0.1-0.1-0.1c0,0-0.1,0-0.1,0c0,0,0,0,0,0
				c0,0,0,0,0,0c0,0,0,0,0,0c-0.1,0.1-0.3-0.1-0.2-0.2C26.9,4,27,3.9,27,3.8c-0.8-0.1-1.5-0.1-2.3-0.3c-0.7-0.1-1.5-0.3-2.2-0.1
				c0,0,0,0-0.1,0c-0.2,0-0.3,0.1-0.4,0.2c0,0,0,0,0,0c-0.1,0.1-0.2-0.1-0.2-0.2c0,0-0.1,0-0.1,0c-0.1,0-0.2-0.1-0.1-0.2
				c0,0,0,0,0,0c0,0,0-0.1,0-0.1c0,0-0.1,0-0.1,0c0,0-0.1-0.1-0.1-0.1c0,0.1,0,0.2-0.1,0.4c0,0.1-0.2,0.1-0.3,0
				c-0.5,0.5-1,0.9-1.6,1.3c-0.7,0.6-1.3,1.2-1.6,2.1c-0.3,0.8-0.4,1.7-0.6,2.5c-0.3,0.9-0.7,1.8-0.6,2.8c0,0.2-0.3,0.2-0.3,0
				c-0.1-0.6,0-1.1,0.2-1.6l0,0c0.1-0.3,0.2-0.5,0.3-0.8c0-0.1,0.1-0.3,0.1-0.4c0.3-0.8,0.4-1.7,0.7-2.6c0.3-0.7,0.7-1.3,1.3-1.8
				C19.5,4.3,20.4,3.8,21,3c0-0.1,0-0.3,0-0.4c-0.1-0.1,0.1-0.3,0.2-0.2l0,0c0.1,0.1,0.2,0.2,0.3,0.3c0,0,0.1-0.1,0.1-0.1
				c0.1-0.1,0.2,0,0.2,0.1v0.1c0,0,0.1,0,0.1-0.1c0.1,0,0.2,0.1,0.2,0.2C22.1,3,22,3.1,22,3.2c0.1,0,0.3,0,0.4,0c0,0,0,0,0,0
				c0,0,0,0,0,0c0.6-0.1,1.2,0,1.8,0c1,0.1,2,0.2,3,0.4c0.1,0,0.1,0.1,0.1,0.2c0,0,0,0.1,0,0.1c0.2-0.1,0.4-0.1,0.6-0.2
				c0,0,0.1-0.1,0.1-0.1c0,0,0,0,0,0c0,0,0,0,0,0c0.1-0.1,0.3,0.1,0.2,0.2C28.2,3.9,28.1,4,28,4c0.2,0,0.3,0,0.5-0.1
				c0.1,0,0.1,0,0.2-0.1c0,0,0,0,0,0c0.2,0,0.2,0.2,0.1,0.3c-0.1,0-0.1,0-0.2,0.1c0.2,0.1,0.4,0.2,0.5,0.5c0.3,0.7,0.1,1.8,0,2.5
				c-0.1,1-0.3,1.9-0.5,2.9c0,0.2-0.2,0.6-0.1,0.8c0,0.4,0.2,0.5,0.5,0.7c0.3,0.2,0.6,0.4,0.9,0.6c0,0,0.1,0.1,0.1,0.1
				C30.3,12.4,30.1,12.7,30,12.6z"/>
		</g>
	</g>
	<path d="M27.5,33.1c-0.4,0.3-0.8,0.2-0.9-0.4c0-0.4,0.3-0.9,0.1-1.2c0-0.2,0-0.3-0.2-0.3c-0.2-0.2-0.3-0.2-0.3,0
		c-0.1,0.1-0.1,0.3-0.1,0.5c0,0.3-0.1,0.6-0.3,0.8c-0.4,0.3-0.7,0.1-0.9-0.3c-0.2-0.4-0.1-0.9-0.1-1.3c0-0.6,0.1-1.2,0.1-1.9
		c0-0.3,0-0.7,0-1c0-0.1,0-0.3,0-0.4c-0.2-0.1-0.3-0.2-0.4-0.3c0,0,0,0.1,0,0.2c-0.1,0.2,0,0.5-0.1,0.8c-0.1,0.2-0.3,0.3-0.5,0.3
		c-0.4,0-0.2-0.2-0.6,0c-0.4,0.2-0.3,0.3-0.2,0.8c0,0.1,0.1,0.3,0.1,0.4c0.1,0.3,0.2,0.6,0.2,0.9c0.1,0.4,0.2,0.9,0.1,1.3
		c0,0.4-0.2,1.4-0.8,1.3c-0.6,0-0.4-0.9-0.4-1.3c0-0.1,0.1-0.5,0-0.5c-0.4-0.4-0.4,0.3-0.5,0.4c-0.1,0.3-0.1,0.7-0.1,1
		c0,0.6,0,1.1,0,1.7c0,0.5,0,1.8-0.7,1.9c-0.6,0.1-0.7-0.9-0.7-1.3c0-1.1,0.4-2.2,0.6-3.3c0.1-0.7,0.2-1.4,0.3-2.1
		c0-0.2,0.1-0.4,0.1-0.6c0-0.4,0-0.4-0.3-0.1c-0.4,0.3-0.3,0.3-0.4,0.8c-0.1,0.6-0.3,1.6-1,1.6c-0.6,0-0.9-0.7-1-1.3
		c-0.1-1.3,0.1-2.6,0-3.9c0-1.3-0.1-2.6-0.3-3.8c0.1,0.1,0.2,0.2,0.4,0.3c0.2,1.3,0.2,2.6,0.3,3.9c0,0.6,0,1.2,0,1.8
		c0,0.5-0.3,2.4,0.3,2.6c1.2,0.4,0.6-2.1,1.3-2.6c0.5-0.3,0.9,0.1,0.9,0.6c0.1,1-0.3,2.1-0.4,3.1c-0.1,0.6-0.2,1.1-0.3,1.7
		c-0.1,0.3-0.4,1.3-0.2,1.6c0.4,0.3,0.6,0.3,0.6-0.1c0-0.3,0.1-0.5,0.1-0.8c0-0.3,0-0.6,0-0.8c0-0.5,0-1,0.1-1.4
		c0-0.4,0.2-1.3,0.7-1.4c0.6-0.1,0.5,0.6,0.5,1c0,0.2-0.1,0.5,0,0.6c0,0.4,0.1,0.4,0.5-0.1c0-0.1,0-0.1,0-0.2
		c0.2-0.6-0.1-1.3-0.2-1.9c-0.2-0.6-0.7-1.7-0.2-2.3c0.1-0.1,0.2-0.2,0.4-0.2c0.2,0,0.4,0.3,0.6,0.3c0.5,0,0.3-1.1,0.7-1.3
		c0.4-0.2,0.7,0.1,0.7,0.5c0.2,1.1,0,2.4-0.1,3.5c0,0.2-0.1,0.7,0,0.9c0,0.1,0,0.2,0,0.3c0.2,0,0.4,0,0.6-0.1c0.2-0.3,0.1-0.7,0.2-1
		c0.2-0.4,0.6-0.5,0.9-0.2c0.4,0.5-0.2,2.1,0.4,2.2c0.9,0.1,0.1-3.2,0.1-3.6c-0.1-1-0.1-2.1,0-3.1c0,0,0-0.1,0-0.1c0,0,0,0,0,0
		c0,0,0,0,0,0c0-0.1,0-0.1,0.1-0.1c0.1,0,0.2,0,0.2,0c0,0,0.1,0.1,0.1,0.1c0,0,0,0,0,0c0,0,0,0,0,0c0,0,0,0.1,0,0.1
		c-0.2,1.6,0,3,0.3,4.6C28.1,31.5,28.2,32.6,27.5,33.1z"/>
	<path d="M19,23c-0.1-0.1-0.2-0.2-0.3-0.2c-0.1-0.1-0.2-0.2-0.3-0.2c-0.2-0.2-0.4-0.3-0.7-0.5c-0.1-0.1,0-0.2,0.1-0.2
		c0.1,0,0.1,0,0.2,0c-0.6-0.4-1.2-0.8-1.7-1.3c0,0.1,0,0.3,0,0.4c0,0.1-0.2,0.2-0.2,0.1c-0.8-0.9-1.5-1.9-1.7-3.1c0,0,0,0,0,0
		c0,0.1-0.2,0.1-0.3,0c-0.9-3,0.9-5.8,2.7-8.1c0,0,0,0,0,0c0.1-0.1,0.3,0.1,0.2,0.2c-0.1,0.2-0.3,0.4-0.4,0.5l0,0
		c-1.5,2-2.8,4.2-2.3,6.7c0,0,0,0,0-0.1c0,0,0,0,0,0c0,0,0,0,0,0c0,0,0,0,0,0c0.1-0.2,0.3-0.1,0.3,0c0.1,1.2,0.7,2.3,1.5,3.3
		c0-0.1,0-0.3,0-0.4c0,0,0,0,0,0c0,0,0,0,0,0c0,0,0-0.1,0-0.1c0-0.1,0.2-0.2,0.3-0.1c0.5,0.8,1.5,1.4,2.3,1.9
		c0.1,0.1,0.1,0.3-0.1,0.3c-0.1,0-0.2,0-0.3,0c0.3,0.2,0.6,0.5,0.9,0.7C19.3,22.8,19.2,23.1,19,23z"/>
	<g>
		<path d="M21.4,24.7c0.5-0.3,1.2-0.7,1.8-0.6c1.4,0.1,2.7,0.6,4,0.8c1.3,0.2,2.8,0.3,4-0.2c0.2-0.1,0.4-0.1,0.5-0.1
			c0.1,0,0.2,0,0.2,0c0.2,0.1,0,0.4,0,0.6c-0.1,0.2-0.3,0.4-0.5,0.6c-0.3,0.2-0.7,0.3-1.1,0.4c-1.4,0.2-2.8,0-4.2-0.4
			c-0.5-0.1-0.9-0.3-1.4-0.3c-0.6-0.1-1.2-0.1-1.8-0.1C22.4,25.2,21.7,25.1,21.4,24.7L21.4,24.7z"/>
		<g>
			<path d="M31.3,24.8L31.3,24.8C31.2,24.8,31.2,24.8,31.3,24.8c-0.1,0-0.1,0-0.1,0c-0.2,0-0.3,0.1-0.5,0.1c0,0,0,0,0,0
				c-0.5,0.1-1,0.2-1.5,0.2c-0.8,0-1.7-0.1-2.5-0.3c-0.9-0.3-1.8-0.4-2.7-0.6c-0.2,0-0.3-0.1-0.5-0.1c0,0-0.1,0-0.1,0c0,0,0,0-0.1,0
				c0,0,0,0,0,0c-0.2,0-0.5,0-0.8,0.1c0,0,0,0.1,0,0.1c0,0,0,0,0,0c0.2-0.1,0.3-0.1,0.5-0.1c0.5-0.1,1.1,0.1,1.6,0.2
				c0.8,0.2,1.7,0.4,2.5,0.6c0.8,0.2,1.6,0.3,2.5,0.2c0.3,0,0.7,0,1-0.1C30.6,25.1,31,24.9,31.3,24.8C31.3,24.8,31.3,24.8,31.3,24.8
				z M31.4,24.5C31.4,24.5,31.4,24.5,31.4,24.5c-0.1,0-0.2,0.1-0.3,0.1c-0.5,0.2-1,0.3-1.6,0.4c-0.7,0-1.3,0-2-0.1
				c-1.2-0.2-2.3-0.5-3.5-0.7c-0.6-0.1-1.1-0.1-1.6,0c-0.1,0-0.2,0.1-0.3,0.1c-0.2,0.1-0.5,0.2-0.8,0.4c0,0-0.1,0.1-0.1,0.1
				c0,0,0,0.1,0,0.1c0.6,0.7,1.7,0.6,2.4,0.6c1.2,0.1,2.4,0.5,3.6,0.7c0,0,0,0,0,0c0.1,0,0.2,0,0.3,0.1c1.4,0.2,4.3,0.5,4.5-1.3
				C32.3,24.4,31.8,24.4,31.4,24.5z M31.7,25.4c-0.2,0.2-0.5,0.4-0.8,0.5c-0.5,0.2-1,0.2-1.5,0.2c-0.6,0-1.2-0.1-1.7-0.2
				c-0.1,0-0.1,0-0.2,0c-0.3-0.1-0.6-0.1-0.8-0.2c-0.8-0.2-1.5-0.4-2.3-0.5c-0.8-0.1-1.9,0.1-2.6-0.4h0c0,0,0,0,0,0
				c0,0,0.1-0.1,0.1-0.1c0.1-0.1,0.3-0.1,0.4-0.2c0,0,0.1,0,0.1-0.1c0.2-0.1,0.3-0.1,0.5-0.1c0.5-0.1,1.1,0.1,1.6,0.2
				c0.8,0.2,1.7,0.4,2.5,0.6c0.8,0.2,1.6,0.3,2.5,0.2c0.3,0,0.7,0,1-0.1c0.2,0,0.6-0.2,0.9-0.3c0,0,0.1,0,0.1,0c0.1,0,0.1,0,0.2,0
				c0.2,0,0.2,0.1,0.3,0.2c0,0,0,0.1,0,0.1C31.8,25.2,31.8,25.3,31.7,25.4z"/>
		</g>
	</g>
	<g>
		<g>
			<path d="M31.4,24.6C31.5,24.6,31.5,24.6,31.4,24.6L31.4,24.6c0,0.1,0,0.1,0,0.1c0,0,0,0,0,0c0,0,0,0,0,0c0,0-0.1,0-0.1,0
				c0,0,0,0,0,0c0,0,0,0,0,0c0,0,0,0,0,0c0,0,0,0,0,0c0,0,0,0,0,0c0-0.1,0-0.1,0-0.2c-0.2-0.7-0.4-1.4-0.5-2.1
				c0-0.8,0.1-1.6,0.1-2.4c0.1-0.7,0.1-1.4,0.2-2.2c0.1-0.8,0.3-1.5,0.4-2.3c0.1-0.8,0.1-1.7-0.4-2.3c-0.4-0.5-1-0.7-1.6-0.9
				c-1.2-0.3-2.5-0.3-3.7-0.3c-1.2,0.1-2.6,0.3-3.4,1.3c-0.8,1-0.5,2.6-0.4,3.7c0.1,1.3,0.3,2.6,0.4,3.9c0.1,1,0.3,2.1,0.1,3.1
				c0,0,0,0.1,0,0.1c0,0,0,0,0,0c0,0,0,0.1,0,0.1c0,0,0,0,0,0c0,0-0.1,0.1-0.1,0.1c-0.1,0-0.1,0-0.1-0.1c0,0,0,0,0,0c0,0,0,0,0-0.1
				c0,0,0-0.1,0-0.1c0.3-1.5-0.1-3.3-0.3-4.8c-0.2-1.6-0.5-3.2-0.3-4.8c0.3-2.4,2.7-2.8,4.8-2.8c0.8,0,1.8,0,2.8,0.2
				c0.3,0.1,0.6,0.1,0.9,0.3c0.9,0.3,1.6,0.9,1.7,1.9c0.2,1.1-0.2,2.2-0.4,3.2c-0.1,0.8-0.2,1.5-0.3,2.3C31,20.5,31,21.3,31,22.2
				c0,0.8,0.3,1.5,0.5,2.3C31.4,24.5,31.4,24.6,31.4,24.6z"/>
		</g>
	</g>
	<g>
		<g>
			<path d="M28.7,5.8c1.6-0.6,2.7-2.1,2.8-3.7c0.3,0.6,0.3,1.3,0.2,1.9c-0.1,1-0.2,2-0.6,3c-0.4,0.9-1.3,1.8-2.3,2"/>
			<g>
				<path d="M28.7,6c1.6-0.6,2.8-2.1,3-3.9c-0.1,0-0.3,0.1-0.4,0.1c0.3,0.6,0.2,1.4,0.2,2.1c-0.1,0.7-0.1,1.4-0.3,2
					c-0.4,1.2-1.2,2.2-2.4,2.5c-0.3,0.1-0.1,0.4,0.1,0.4c1.3-0.3,2.2-1.3,2.6-2.6c0.3-0.8,0.4-1.6,0.4-2.4C31.9,3.5,32,2.7,31.6,2
					c-0.1-0.2-0.4-0.1-0.4,0.1c-0.1,1.6-1.2,2.9-2.7,3.5C28.4,5.7,28.5,6.1,28.7,6L28.7,6z"/>
			</g>
		</g>
		<g>
			<path d="M18.5,5.4c-1.6-1-2.5-3-2.2-4.8c-0.5,0.6-0.6,1.4-0.7,2.1c-0.1,1.2-0.3,2.4,0,3.5c0.2,1.2,0.9,2.3,2,2.8"/>
			<g>
				<path d="M18.6,5.3c-1.5-1-2.3-2.8-2.1-4.6c0-0.2-0.3-0.2-0.4-0.1c-0.5,0.6-0.6,1.4-0.7,2.1c-0.1,1-0.3,2.1-0.1,3.1
					c0.2,1.4,0.9,2.8,2.2,3.4c0.2,0.1,0.4-0.2,0.2-0.3c-1.4-0.7-2-2.1-2.1-3.6c0-0.8,0-1.5,0.1-2.3c0.1-0.8,0.2-1.6,0.7-2.3
					c-0.1,0-0.3-0.1-0.4-0.1c-0.3,2,0.7,3.9,2.3,4.9C18.6,5.7,18.8,5.4,18.6,5.3L18.6,5.3z"/>
			</g>
		</g>
		<path d="M32.2,24.9c-0.2,1.8-3.1,1.5-4.5,1.3c-0.2,1.6,0,3,0.3,4.6c0.1,0.7,0.2,1.8-0.4,2.3c-0.4,0.3-0.8,0.2-0.9-0.4
			c0-0.4,0.3-0.9,0.1-1.2c0-0.2,0-0.3-0.2-0.3c-0.2-0.2-0.3-0.2-0.3,0c-0.1,0.1-0.1,0.3-0.1,0.5c0,0.3-0.1,0.6-0.3,0.8
			c-0.4,0.3-0.7,0.1-0.9-0.3c-0.2-0.4-0.1-0.9-0.1-1.3c0-0.6,0.1-1.2,0.1-1.9c0-0.3,0-0.7,0-1c0-0.1,0-0.3,0-0.4
			c-0.2-0.1-0.3-0.2-0.4-0.3c0,0,0,0.1,0,0.2c-0.1,0.2,0,0.5-0.1,0.8c-0.1,0.2-0.3,0.3-0.5,0.3c-0.4,0-0.2-0.2-0.6,0
			c-0.4,0.2-0.3,0.3-0.2,0.8c0,0.1,0.1,0.3,0.1,0.4c0.1,0.3,0.2,0.6,0.2,0.9c0.1,0.4,0.2,0.9,0.1,1.3c0,0.4-0.2,1.4-0.8,1.3
			c-0.6,0-0.4-0.9-0.4-1.3c0-0.1,0.1-0.5,0-0.5c-0.4-0.4-0.4,0.3-0.5,0.4c-0.1,0.3-0.1,0.7-0.1,1c0,0.6,0,1.1,0,1.7
			c0,0.5,0,1.8-0.7,1.9c-0.6,0.1-0.7-0.9-0.7-1.3c0-1.1,0.4-2.2,0.6-3.3c0.1-0.7,0.2-1.4,0.3-2.1c0-0.2,0.1-0.4,0.1-0.6
			c0-0.4,0-0.4-0.3-0.1c-0.4,0.3-0.3,0.3-0.4,0.8c-0.1,0.6-0.3,1.6-1,1.6c-0.6,0-0.9-0.7-1-1.3c-0.1-1.3,0.1-2.6,0-3.9
			c0-1.3-0.1-2.6-0.3-3.8c-0.2-0.2-0.4-0.3-0.7-0.5c-0.1-0.1,0-0.2,0.1-0.2c0.1,0,0.1,0,0.2,0c-0.6-0.4-1.2-0.8-1.7-1.3
			c0,0.1,0,0.3,0,0.4c0,0.1-0.2,0.2-0.2,0.1c-0.8-0.9-1.5-1.9-1.7-3.1c0,0,0,0,0,0c0,0.1-0.2,0.1-0.3,0c-0.9-3,0.9-5.8,2.7-8.1
			c0,0,0,0,0,0c0-0.1,0.1-0.3,0.1-0.4c0.3-0.8,0.4-1.7,0.7-2.6c0.3-0.7,0.7-1.3,1.3-1.8C19.5,4.3,20.4,3.8,21,3c0-0.1,0-0.3,0-0.4
			c-0.1-0.1,0.1-0.3,0.2-0.2l0,0c0.1,0.1,0.2,0.2,0.3,0.3c0,0,0.1-0.1,0.1-0.1c0.1-0.1,0.2,0,0.2,0.1v0.1c0,0,0.1,0,0.1-0.1
			c0.1,0,0.2,0.1,0.2,0.2C22.1,3,22,3.1,22,3.2c0.1,0,0.3,0,0.4,0c0,0,0,0,0,0c0,0,0,0,0,0c0.6-0.1,1.2,0,1.8,0c1,0.1,2,0.2,3,0.4
			c0.1,0,0.1,0.1,0.1,0.2c0,0,0,0.1,0,0.1c0.2-0.1,0.4-0.1,0.6-0.2c0,0,0.1-0.1,0.1-0.1c0,0,0,0,0,0c0,0,0,0,0,0
			c0.1-0.1,0.3,0.1,0.2,0.2C28.2,3.9,28.1,4,28,4c0.2,0,0.3,0,0.5-0.1c0.1,0,0.1,0,0.2-0.1c0,0,0,0,0,0c0.2,0,0.2,0.2,0.1,0.3
			c-0.1,0-0.1,0-0.2,0.1c0.2,0.1,0.4,0.2,0.5,0.5c0.3,0.7,0.1,1.8,0,2.5c-0.1,1-0.3,1.9-0.5,2.9c0,0.2-0.2,0.6-0.1,0.8
			c0,0.4,0.2,0.5,0.5,0.7c0.3,0.2,0.6,0.4,0.9,0.6c0.9,0.3,1.6,0.9,1.7,1.9c0.2,1.1-0.2,2.2-0.4,3.2c-0.1,0.8-0.2,1.5-0.3,2.3
			C31,20.5,31,21.3,31,22.2c0,0.8,0.3,1.5,0.5,2.3C31.8,24.4,32.3,24.4,32.2,24.9z"/>
	</g>
</g>
</svg>
