<?xml version="1.0" encoding="utf-8"?>
<!-- Generator: Adobe Illustrator 24.3.0, SVG Export Plug-In . SVG Version: 6.00 Build 0)  -->
<svg version="1.1" id="Layer_1" xmlns="http://www.w3.org/2000/svg" xmlns:xlink="http://www.w3.org/1999/xlink" x="0px" y="0px"
	 viewBox="0 0 30 23" style="enable-background:new 0 0 30 23;" xml:space="preserve">
<style type="text/css">
	.st0{fill:#FFFFFF;}
</style>
<path class="st0" d="M25.4,2.4c-1.9-0.9-4-1.5-6.1-1.9c0,0,0,0-0.1,0c0,0,0,0,0,0c-0.3,0.5-0.6,1.1-0.8,1.5c-2.3-0.3-4.6-0.3-6.9,0
	c-0.2-0.5-0.5-1-0.8-1.5c0,0,0,0,0,0c0,0,0,0-0.1,0c-2.1,0.4-4.2,1-6.1,1.9c0,0,0,0,0,0c-3.9,5.7-5,11.3-4.4,16.8c0,0,0,0,0,0
	c0,0,0,0,0,0C2.4,20.9,5,22.2,7.7,23c0,0,0,0,0.1,0c0,0,0,0,0,0c0.6-0.8,1.1-1.6,1.5-2.5c0,0,0,0,0,0c0,0,0,0,0,0c0,0,0,0,0,0
	c0,0,0,0,0,0c-0.8-0.3-1.6-0.7-2.3-1.1c0,0,0,0,0,0c0,0,0,0,0,0c0,0,0,0,0,0c0,0,0,0,0,0C7,19,7.2,18.9,7.4,18.8c0,0,0,0,0,0
	c0,0,0,0,0.1,0c4.9,2.2,10.2,2.2,15.1,0c0,0,0,0,0.1,0c0,0,0,0,0,0c0.1,0.1,0.3,0.2,0.5,0.4c0,0,0,0,0,0c0,0,0,0,0,0c0,0,0,0,0,0
	c0,0,0,0,0,0c-0.7,0.4-1.5,0.8-2.3,1.1c0,0,0,0,0,0c0,0,0,0,0,0c0,0,0,0,0,0c0,0,0,0,0,0c0.5,0.9,1,1.7,1.5,2.5c0,0,0,0,0,0
	c0,0,0,0,0.1,0c2.7-0.8,5.2-2.1,7.5-3.7c0,0,0,0,0,0c0,0,0,0,0,0C30.5,12.8,28.8,7.3,25.4,2.4C25.4,2.4,25.4,2.4,25.4,2.4z M10,15.8
	c-1.5,0-2.7-1.3-2.7-3c0-1.6,1.2-3,2.7-3c1.5,0,2.7,1.3,2.7,3C12.7,14.5,11.5,15.8,10,15.8z M20,15.8c-1.5,0-2.7-1.3-2.7-3
	c0-1.6,1.2-3,2.7-3c1.5,0,2.7,1.3,2.7,3C22.7,14.5,21.5,15.8,20,15.8z"/>
</svg>
