<?xml version="1.0" encoding="utf-8"?>
<!-- Generator: Adobe Illustrator 24.3.0, SVG Export Plug-In . SVG Version: 6.00 Build 0)  -->
<svg version="1.1" id="Layer_1" xmlns="http://www.w3.org/2000/svg" xmlns:xlink="http://www.w3.org/1999/xlink" x="0px" y="0px"
	 viewBox="0 0 30 19" style="enable-background:new 0 0 30 19;" xml:space="preserve">
<g>
	<defs>
		<path id="SVGID_1_" d="M21.3,5L23,7c0.2,0.2,0.4,0.4,0.5,0.5c0.5,0.5,0.8,1.2,0.8,2c0,0.9-0.6,1.5-1.1,2.1l-1.2,1.4l-0.6,0.7
			c0,0,0,0.1,0,0.1c0,0,0,0.1,0,0.1c0,0,0,0.1,0.1,0.1s0.1,0,0.1,0h6.4c1,0,2.2,0.8,2.1,2.1c0,0.6-0.2,1.1-0.6,1.5
			c-0.4,0.4-1,0.6-1.5,0.6h-10c-0.7,0-2.4,0.1-2.9-1.4c-0.1-0.3-0.1-0.7,0-1c0.1-0.5,0.4-0.9,0.7-1.3c0.5-0.7,1.1-1.5,1.6-2.2
			c0.7-0.9,1.4-1.9,2.1-2.8c0,0,0-0.1,0-0.1s0-0.1,0-0.1l-2.6-3c0,0,0,0-0.1-0.1c0,0-0.1,0-0.1,0c0,0-0.1,0-0.1,0c0,0,0,0-0.1,0.1
			c-0.7,0.9-3.7,4.9-4.3,5.7c-0.6,0.8-2.2,0.9-3.1,0l-4-3.9c0,0-0.1,0-0.1,0c0,0-0.1,0-0.1,0c0,0-0.1,0-0.1,0.1c0,0,0,0.1,0,0.1v7.6
			c0,0.5-0.2,1.1-0.5,1.5c-0.3,0.4-0.8,0.8-1.3,1c-0.3,0.1-0.7,0.1-1,0.1c-0.3,0-0.7-0.2-1-0.4c-0.3-0.2-0.5-0.5-0.7-0.8
			c-0.2-0.3-0.2-0.6-0.2-1V2.6c0-0.5,0.2-1,0.5-1.3c0.3-0.4,0.7-0.7,1.2-0.8c0.4-0.1,0.8-0.1,1.3,0c0.4,0.1,0.8,0.3,1.1,0.6l6.1,6.1
			c0,0,0,0,0.1,0c0,0,0.1,0,0.1,0c0,0,0.1,0,0.1,0c0,0,0,0,0.1-0.1l4.4-5.9c0.2-0.2,0.5-0.4,0.7-0.6c0.3-0.1,0.6-0.2,0.9-0.2h11.3
			c0.3,0,0.6,0.1,0.9,0.2c0.3,0.1,0.5,0.3,0.7,0.5c0.2,0.2,0.4,0.5,0.4,0.8C30,2.2,30,2.5,30,2.8c-0.1,0.5-0.4,1-0.8,1.3
			c-0.4,0.3-0.9,0.5-1.5,0.5h-6.3c0,0-0.1,0-0.1,0c0,0,0,0-0.1,0.1C21.2,4.8,21.2,4.9,21.3,5C21.2,4.9,21.2,4.9,21.3,5z"/>
	</defs>
	<clipPath id="SVGID_2_">
		<use xlink:href="#SVGID_1_"  style="overflow:visible;"/>
	</clipPath>
</g>
</svg>
