<?xml version="1.0" encoding="utf-8"?>
<!-- Generator: Adobe Illustrator 24.3.0, SVG Export Plug-In . SVG Version: 6.00 Build 0)  -->
<svg version="1.1" id="Layer_1" xmlns="http://www.w3.org/2000/svg" xmlns:xlink="http://www.w3.org/1999/xlink" x="0px" y="0px"
	 viewBox="0 0 30 25" style="enable-background:new 0 0 30 25;" xml:space="preserve">
<style type="text/css">
	.st0{fill:#FFFFFF;}
</style>
<path class="st0" d="M30,3.5c-1.1,0.5-2.3,0.8-3.5,0.9c1.3-0.7,2.2-1.9,2.7-3.3c-1.2,0.7-2.5,1.2-3.9,1.5c-0.9-1-2.2-1.6-3.5-1.8
	c-1.3-0.2-2.7,0-3.9,0.6C16.7,2,15.7,3,15.2,4.2c-0.6,1.2-0.7,2.6-0.4,3.8c-2.4-0.1-4.8-0.7-7-1.8C5.6,5.1,3.6,3.6,2.1,1.7
	c-0.5,0.9-0.8,1.9-0.8,3c0,1,0.2,2,0.7,2.8c0.5,0.9,1.2,1.6,2,2.2C3,9.7,2.1,9.5,1.2,9v0.1c0,1.4,0.5,2.7,1.4,3.8s2.2,1.8,3.5,2.1
	c-0.9,0.2-1.9,0.3-2.8,0.1c0.4,1.2,1.2,2.2,2.2,3c1,0.7,2.3,1.2,3.6,1.2c-2.2,1.7-4.9,2.6-7.6,2.6c-0.5,0-1,0-1.5-0.1
	c2.8,1.8,6.1,2.7,9.4,2.7c11.3,0,17.5-9.1,17.5-17c0-0.3,0-0.5,0-0.8C28.1,5.7,29.2,4.7,30,3.5L30,3.5z"/>
</svg>
